# xmcd
#
# Track frame offsets: 
#        150
#        11303
#        29272
#        50234
#
# Disc length: 879 seconds
#
# Revision: 0
# Processed by: cddbd v1.4PL0 Copyright (c) Steve Scherf et al.
# Submitted via: ExactAudioCopy v0.90b3
#
DISCID=29036d04
DTITLE=Littlefish - Minnow Songs
DYEAR=2002
DGENRE=Pop-Folk
TTITLE0=Shine Bright
TTITLE1=Airhead
TTITLE2=Coming On
TTITLE3=Another Game
EXTD=
EXTT0=
EXTT1=
EXTT2=
EXTT3=
PLAYORDER=
